<svg preserveAspectRatio="none" overflow="visible" style="display: block;" width="14" height="14" viewBox="0 0 14 14" fill="none" xmlns="http://www.w3.org/2000/svg">
<g id="Img">
<path id="Vector" d="M3.28 2.22C2.99 1.93 2.51 1.93 2.22 2.22C1.93 2.51 1.93 2.99 2.22 3.28L5.94 7L2.22 10.72C1.93 11.01 1.93 11.49 2.22 11.78C2.51 12.07 2.99 12.07 3.28 11.78L7 8.06L10.72 11.78C11.01 12.07 11.49 12.07 11.78 11.78C12.07 11.49 12.07 11.01 11.78 10.72L8.06 7L11.78 3.28C12.07 2.99 12.07 2.51 11.78 2.22C11.49 1.93 11.01 1.93 10.72 2.22L7 5.94L3.28 2.22Z" fill="currentColor"/>
</g>
</svg>
